# xmcd CD database file
#
# Track frame offsets:
#	150
#	15125
#	27825
#	43912
#	60450
#	80925
#	99225
#	118012
#	129225
#	142312
#	155887
#	167812
#	184425
#	199500
#	215250
#
# Disc length: 3127 seconds
#
# Revision: 1
# Processed by: cddbd v1.4PL0 Copyright (c) Steve Scherf et al.
# Submitted via: CDex 1.50Beta7
#
DISCID=d20c350f
DTITLE=Paul Rishell - Swear To Tell The Truth
DYEAR=1993
DGENRE=Blues
TTITLE0=Shake 'Em On Down
TTITLE1=I'm Gonna Jump and Shout
TTITLE2=Depot Blues
TTITLE3=It'll be Me
TTITLE4=Somebody in My Home
TTITLE5=Every Night about This Time
TTITLE6=Canned Heat Blues
TTITLE7=32-20 Blues
TTITLE8=Mamie
TTITLE9=Drinkin' Water from a Hollow Log
TTITLE10=Michigan Water
TTITLE11=Some of These Days
TTITLE12=Lou Ella
TTITLE13=Do You Swear to Tell the Truth¿
TTITLE14=Devil Got My Woman
EXTD=YEAR: 1993
EXTT0=
EXTT1=
EXTT2=
EXTT3=
EXTT4=
EXTT5=
EXTT6=
EXTT7=
EXTT8=
EXTT9=
EXTT10=
EXTT11=
EXTT12=
EXTT13=
EXTT14=
PLAYORDER=
